# xmcd
#
# Track frame offsets: 
#        150
#        30935
#        44745
#        58047
#        76535
#        87077
#        111015
#        143957
#        162762
#        179450
#        192352
#        209002
#        233997
#        250335
#        278597
#        309717
#
# Disc length: 4524 seconds
#
# Revision: 3
# Processed by: cddbd v1.5.2PL0 Copyright (c) Steve Scherf et al.
# Submitted via: ExactAudioCopy v1.0b2
#
DISCID=da11aa10
DTITLE=The O'Jays - The Ultimate O'Jays
DYEAR=2001
DGENRE=R&B
TTITLE0=I Love Music
TTITLE1=Back Stabbers
TTITLE2=Love Train
TTITLE3=Put Your Hands Together
TTITLE4=992 Arguments
TTITLE5=When the World's at Peace
TTITLE6=For the Love of Money
TTITLE7=Give the People What They Want
TTITLE8=Survival
TTITLE9=Time to Get Down
TTITLE10=Sunshine
TTITLE11=You Got Your Hooks in Me
TTITLE12=Let Me Make Love to You
TTITLE13=Stairway to Heaven
TTITLE14=Family Reunion
TTITLE15=Livin' for the Weekend
EXTD=YEAR: 2001
EXTT0=
EXTT1=
EXTT2=
EXTT3=
EXTT4=
EXTT5=
EXTT6=
EXTT7=
EXTT8=
EXTT9=
EXTT10=
EXTT11=
EXTT12=
EXTT13=
EXTT14=
EXTT15=
PLAYORDER=
